<svg xmlns="http://www.w3.org/2000/svg" xmlns:xlink="http://www.w3.org/1999/xlink" width="1255" height="795" viewBox="0 0 1255 795">
  <defs>
    <clipPath id="clip-Web_1920_1">
      <rect width="1255" height="795"/>
    </clipPath>
  </defs>
  <g id="Web_1920_1" data-name="Web 1920 – 1" clip-path="url(#clip-Web_1920_1)">
    <g id="layer1" transform="translate(207.125 -434.875)">
      <g id="Group_1" data-name="Group 1" transform="translate(-450.125 211.875)">
        <path id="Path_1" data-name="Path 1" d="M-448.936,211.875a1.193,1.193,0,0,0-.841.348,1.193,1.193,0,0,0-.348.841V1270.69a1.186,1.186,0,0,0,1.189,1.185H1262.3a1.156,1.156,0,0,0,1.185-1.185V213.065a1.186,1.186,0,0,0-1.185-1.189Z" transform="translate(450.125 -211.875)" fill="rgba(99,195,207,0)"/>
      </g>
      <g id="Group_2" data-name="Group 2" transform="translate(694.886 605.635)">
        <path id="Path_2" data-name="Path 2" d="M647.673,601.609h0L632.5,592.093l15.991-7.912-.818,17.427" transform="translate(-632.499 -584.181)" fill="rgba(253,186,155,1)"/>
      </g>
      <g id="Group_3" data-name="Group 3" transform="translate(682.84 592.867)">
        <path id="Path_3" data-name="Path 3" d="M623.64,572.108h0l5.7,8.839-5.452,1.87-2.784-7.376,2.531-3.333" transform="translate(-621.109 -572.108)" fill="rgba(253,186,155,1)"/>
      </g>
      <g id="Group_4" data-name="Group 4" transform="translate(555.18 576.721)">
        <path id="Path_4" data-name="Path 4" d="M548.69,556.842l-1.254,1.192a89.429,89.429,0,0,0-10.661,11.507q-1.741,1.957-8.55,14.145a27.763,27.763,0,0,1-4.454,5.5q-.52.75-4.279,2.944-1.231.874-10.091,3.878-2.348,1.1-2.25,1.4-.458.206-.061,1.749,4.02,5.255,3.638,6.379.195.372-.937,2.009a33.9,33.9,0,0,1-4.07,3.625q-1.33,1.417-1.228,1.688-.531,1.711,3.6,5.163.177.148-.621.41-3.519.476-3.842.8-1.145.7-1.13,1.03-.2.148-.3,1.708.571,6.253.3,6.542.125.5-1.525,6.168a11.947,11.947,0,0,0-.283,1.667q-.7,8.8,23.719,12.473-5.1,13.209-9.56,20.071a39.033,39.033,0,0,1-4.184,5.417,91.366,91.366,0,0,1-7.56,6.834,15.018,15.018,0,0,0-2,2.1,2.868,2.868,0,0,0-.7,1.821l.291.826q1.389,2.914,21.306,5.193,19.431,1.723,19.921-.716a2.349,2.349,0,0,0,.256-1.64q-1.727-6.407-1.423-9.963l.278-2.536a37.969,37.969,0,0,1,1.547-5.866,113.627,113.627,0,0,1,5.946-13.676q1.362-2.915,11.947-22.444,2.53-4.939,4.02-8.438,8.734-23.559,13.742-36.162Z" transform="translate(-500.405 -556.842)" fill="#ffb192"/>
      </g>
      <g id="Group_5" data-name="Group 5" transform="translate(584.558 570.975)">
        <path id="Path_5" data-name="Path 5" d="M528.182,565.272,554.7,586.847q-10.443,28.7-13.39,39.609-4.689,17.986-4.556,20.614-2.794,19.283,6.636,26.433a23.912,23.912,0,0,0,9.783,4.351,35.015,35.015,0,0,0,5.9.733q1.539.332,8.988-.628,10.062-2.4,12.741-4.868a16.839,16.839,0,0,0,4.034-3.792l1.568-2.613,1.05-2.861a28.523,28.523,0,0,0,.9-6.405l-.593-19.31a69.954,69.954,0,0,1,.482-8.733,81.844,81.844,0,0,1,1.724-9.116l5.064-18.548q1.213-4.589,1.935-8.992a44.448,44.448,0,0,0,.6-8.509l-.419-4.005q-1.19-9.034-12.153-17.522a62.611,62.611,0,0,0-22.8-10.117q-11.79-2.521-19.076.439Q537.644,554.2,528.182,565.272Z" transform="translate(-528.182 -551.409)"/>
      </g>
      <g id="Group_6" data-name="Group 6" transform="translate(583.998 605.267)">
        <path id="Path_6" data-name="Path 6" d="M527.654,583.833h0q3.544.382,5.193.674.666.114,1.259.247l.568.14.521.151a6.9,6.9,0,0,1,.829.315l.387.2.323.219.267.234a2.275,2.275,0,0,1,.381.506,3.955,3.955,0,0,1,.366,2.006Z" transform="translate(-527.653 -583.833)" fill="rgba(0,0,0,1)"/>
      </g>
      <g id="Group_7" data-name="Group 7" transform="translate(581.301 608.823)">
        <path id="Path_7" data-name="Path 7" d="M527.43,587.2h0l-2.326,4.528,8.176,2.127Z" transform="translate(-525.103 -587.195)" fill="rgba(255,255,255,1)"/>
      </g>
      <g id="Group_8" data-name="Group 8" transform="translate(556.979 631.324)">
        <path id="Path_8" data-name="Path 8" d="M505.362,608.47q-1.059,1.164-.967,1.407-.531,1.711,3.6,5.163.177.148-.621.41-3.519.476-3.842.8-1.145.7-1.13,1.03-.2.148-.3,1.708.078.852.14,1.594l9.839-4.119-6.717-7.989Z" transform="translate(-502.106 -608.47)" fill="rgba(255,0,0,1)"/>
      </g>
      <g id="Group_9" data-name="Group 9" transform="translate(606.254 689.712)">
        <path id="Path_9" data-name="Path 9" d="M548.7,663.677Z" transform="translate(-548.696 -663.677)" fill="rgba(255,169,106,1)"/>
      </g>
      <g id="Group_10" data-name="Group 10" transform="translate(581.438 608.82)">
        <path id="Path_10" data-name="Path 10" d="M527.62,587.192h0q-.729.559-1.343,1.128a5.368,5.368,0,0,0-.53.574,3.076,3.076,0,0,0-.26.39,1.948,1.948,0,0,0-.245.8,2.56,2.56,0,0,0,0,.409,3.743,3.743,0,0,0,.106.62q.108.417.25.836l2.989-.789Z" transform="translate(-525.233 -587.192)" fill="rgba(0,0,0,1)"/>
      </g>
      <g id="Group_13" data-name="Group 13" transform="translate(167.627 813.938)">
        <g id="Group_11" data-name="Group 11" transform="translate(45.137 0)">
          <path id="Path_11" data-name="Path 11" d="M265.55,828.089l35.569-46.955L332,806.026q-95.315,80.532-96.211,82.362-5.709,5.054-7.408,8.8a11.549,11.549,0,0,0-1,3.336q-.242,6.31-.62,7.264a7.032,7.032,0,0,1-1.326,2.773q-1.129,2.036-8.611,4.581l-2.186.706-13.356-11.182q-13.356-11.182-20.5-18.056-4.562-4.438-4.1-5.409.286-.452,1.758-.311a92.54,92.54,0,0,0,13.072,1.191,46.108,46.108,0,0,0,7.682-.659q8.259-1.263,17.485-7.1a132.739,132.739,0,0,0,18.972-15.182Q250.36,845.006,265.55,828.089Z" transform="translate(-176.646 -781.134)" fill="#ffb192"/>
        </g>
        <g id="Group_12" data-name="Group 12" transform="translate(0 78.461)">
          <path id="Path_12" data-name="Path 12" d="M209.23,874.3l-.365.156q-11.784,2.881-28.932-.594a73.08,73.08,0,0,1-13.193-4.407q-3.266-1.464-6.579-3.223l-15.4-8.322a36.858,36.858,0,0,0-4.853-2.041,8.347,8.347,0,0,0-3.6-.509l-1.227.487q-.846.44-1.1,2.593-.194,4.394,3.11,12.112,4.637,9.61,6.3,11.6a68.536,68.536,0,0,0,5.551,7.346l3.075,3.24a36.744,36.744,0,0,0,6.569,5.113,38.175,38.175,0,0,0,13.873,4.933,56.991,56.991,0,0,0,6.783.656l14.409-.194a33.907,33.907,0,0,1,5.845.5,14.692,14.692,0,0,1,8.836,4.979L197.661,926.5l7.136,4.657,7.662-11.379a20.391,20.391,0,0,0,10.548-6.654,121.087,121.087,0,0,0,10.346-15.159Z" transform="translate(-133.968 -855.32)" fill="rgba(0,0,0,1)"/>
        </g>
      </g>
      <g id="Group_16" data-name="Group 16" transform="translate(154.786 808.511)">
        <g id="Group_14" data-name="Group 14" transform="translate(43.081 0)">
          <path id="Path_13" data-name="Path 13" d="M256.507,819.027,296.741,776l28.146,27.953Q221.753,874.2,220.672,875.925q-6.2,4.437-8.277,7.983a11.547,11.547,0,0,0-1.34,3.216q-.894,6.251-1.368,7.16a7.045,7.045,0,0,1-1.607,2.621q-1.333,1.908-9.038,3.665l-2.246.476-12.128-12.5q-12.129-12.5-18.523-20.079-4.078-4.886-3.517-5.8.331-.419,1.78-.127a92.6,92.6,0,0,0,12.879,2.537,46.2,46.2,0,0,0,7.709.139q8.345-.4,18.125-5.259a132.679,132.679,0,0,0,20.441-13.138Q239.649,834.283,256.507,819.027Z" transform="translate(-162.561 -776.003)" fill="#ffb192"/>
        </g>
        <g id="Group_15" data-name="Group 15" transform="translate(0 60.781)">
          <path id="Path_14" data-name="Path 14" d="M195.167,859.856l-.379.116q-12.02,1.647-28.717-3.583a73,73,0,0,1-12.665-5.747q-3.1-1.794-6.211-3.886l-14.452-9.871a36.782,36.782,0,0,0-4.617-2.532,8.361,8.361,0,0,0-3.53-.879l-1.27.357q-.887.35-1.365,2.465-.647,4.35,1.841,12.369,3.617,10.037,5.065,12.188a68.561,68.561,0,0,0,4.761,7.88l2.723,3.54a36.738,36.738,0,0,0,6,5.765,38.16,38.16,0,0,0,13.289,6.341,57.014,57.014,0,0,0,6.678,1.353l14.352,1.3a33.91,33.91,0,0,1,5.763,1.1A14.7,14.7,0,0,1,190.711,894l-12.449,16.578,6.618,5.37,8.8-10.525a20.4,20.4,0,0,0,11.179-5.527,121.037,121.037,0,0,0,11.858-14.008Z" transform="translate(-121.827 -833.472)" fill="rgba(0,0,0,1)"/>
        </g>
      </g>
      <g id="Group_17" data-name="Group 17" transform="translate(360.958 799.326)">
        <path id="Path_15" data-name="Path 15" d="M483.162,820.236l-2.521,3.025L458,850.608A109.338,109.338,0,0,1,447.28,861.28q-13.674,11.271-25.7,14.194a49.609,49.609,0,0,1-21.107,1.163q-1.816-.07-11.345-2.631-24.953-8.122-26.571-8.147-1.925-.7-10.7-1.676-10.573-1.284-32.606,3.73l-2.489-70.72q17.679-5.746,27.92-5.794,9.99-.552,32.774,4l35.1-28.078Z" transform="translate(-316.765 -767.318)" fill="#3a6974"/>
      </g>
      <g id="Group_18" data-name="Group 18" transform="translate(225.221 680.677)">
        <path id="Path_16" data-name="Path 16" d="M560.7,743.16l.949-4.735q9.287-42.367,5.218-55.366-.858-4.684-6.989-12.558l.475-3.473-25.272-11.894-4.257,7.583q-9.807,7.656-14.032,9.493a47.564,47.564,0,0,1-8.779,3.429l-23.325,4.991q-7.7,2.915-9.046,5.583a19.626,19.626,0,0,0-3.509,7.178q-.82,11.032-5.929,30.813a115.8,115.8,0,0,1-6.562,17.291q-8.419,18.3-24.925,26.446-13.674,6.889-38.765,8.173-21.768,1.5-70.29-2.173a64.183,64.183,0,0,0-16.818,2.162q-12.574.823-120.421,54.976,15.539,11.113,16.771,15.983,1.177,4.056.611,4.884-5.355,13.544-4.09,14.009.049,3.829,4.371,8.2,10.587,9.927,47.393,26.836,13.562-22.019,25.736-31.2,11.213-9.51,44.424-24.884,136.222,2.967,171.377-12.01a45.879,45.879,0,0,0,11.079-6.633q3.294-1.495,9.055-12.316a69.2,69.2,0,0,0,2.4-29.551L515.5,833.429,560.7,743.16" transform="translate(-188.424 -655.134)" fill="red"/>
      </g>
      <g id="Group_19" data-name="Group 19" transform="translate(-67.056 447.237)">
        <path id="Path_17" data-name="Path 17" d="M50.39,619.193l.77,25.618q-.242,77.561-19.383,125.1Q12.484,817.424-17.57,810.286q-28.895-10.694-49.062-69.141A353.7,353.7,0,0,1-77.85,699.809l-4.222-23.1q-3.744-23.882-5.2-49.988Q-90.911,546.557-74.4,492.3t45.652-57.883q29.359.423,51.688,52.562T50.39,619.193Z" transform="translate(87.928 -434.413)" fill="#88d2ff"/>
      </g>
      <g id="Group_20" data-name="Group 20" transform="translate(-39.619 667.925)">
        <path id="Path_18" data-name="Path 18" d="M52.845,643.077-61.985,745.089l38.072,48.856,31.931-7.988L30.739,754l14.738-53.772Z" transform="translate(61.985 -643.077)" fill="rgba(255,255,255,0.25)"/>
      </g>
      <g id="Group_21" data-name="Group 21" transform="translate(-71.563 445.891)">
        <path id="Path_19" data-name="Path 19" d="M-89.72,590.033l117.9-106.008-17.175-32.36L-22.121,433.14l-34.516,18.313-25.729,49.609-9.822,52.491Z" transform="translate(92.189 -433.14)" fill="rgba(255,255,255,0.26)"/>
      </g>
      <g id="Group_22" data-name="Group 22" transform="translate(682.611 594.229)">
        <path id="Path_20" data-name="Path 20" d="M649.19,580.4l-5.419.759q.162-4.375-1.045-5.936a3.775,3.775,0,0,0-1.208-1.085l-.85-.379-1.04-.25-1.248-.111a28.8,28.8,0,0,0-10.547,2.3,22.636,22.636,0,0,0-3.193,1.616l-1.331.93-1.089,1-.8,1.062-.455,1.116-.075,1.181.287,1.213a12.76,12.76,0,0,0,3.833,4.81,29.918,29.918,0,0,0,2.876,2.143,35.15,35.15,0,0,0,4.464,2.5,11.732,11.732,0,0,0,5.711,1.438,5.179,5.179,0,0,0,3.677-2.4l6.524-1.322Z" transform="translate(-620.893 -573.396)" fill="rgba(254,186,155,1)"/>
      </g>
      <g id="Group_23" data-name="Group 23" transform="translate(692.176 588.357)">
        <path id="Path_21" data-name="Path 21" d="M631.336,576.5h0a22.908,22.908,0,0,1-1.4-6.038,3.981,3.981,0,0,1,.1-.978,2.118,2.118,0,0,1,.244-.611l.125-.184a1.916,1.916,0,0,1,.3-.313,2.266,2.266,0,0,1,.772-.414,3.871,3.871,0,0,1,3.632.948,5.5,5.5,0,0,1,.675.759,8.917,8.917,0,0,1,.847,1.417,31.774,31.774,0,0,1,1.355,3.416Z" transform="translate(-629.937 -567.844)" fill="rgba(254,186,155,1)"/>
      </g>
      <g id="Group_24" data-name="Group 24" transform="translate(700.748 596.55)">
        <path id="Path_22" data-name="Path 22" d="M819.45,647.754,788.41,630.4l-150.368-8.436,5.389-41.765q125.421-6.1,157.469-4.167c18.216,1.043,27.958,2.135,29.535,2.453,10.145,2.043,17.484,4.131,22.077,6.889,6.073,3.644,9.892,9.437,11.217,17.79Z" transform="translate(-638.042 -575.591)" fill="#fff"/>
      </g>
      <g id="Group_25" data-name="Group 25" transform="translate(661.101 558.574)">
        <path id="Path_23" data-name="Path 23" d="M600.555,539.684h0l28.119,29.63,2.132-4.738Z" transform="translate(-600.555 -539.684)"/>
      </g>
      <g id="Group_26" data-name="Group 26" transform="translate(683.731 548.535)">
        <path id="Path_24" data-name="Path 24" d="M634.516,530.192h0L626.262,570.2l-4.31-2.9Z" transform="translate(-621.952 -530.192)"/>
      </g>
      <g id="Group_27" data-name="Group 27" transform="translate(688.668 581.977)">
        <path id="Path_25" data-name="Path 25" d="M638.982,566.384h0a6.3,6.3,0,0,1-4.331,7.787h0a6.3,6.3,0,0,1-7.787-4.331h0a6.3,6.3,0,0,1,4.331-7.788h0a6.3,6.3,0,0,1,7.787,4.329h0m-2.158.614h0a4.057,4.057,0,0,0-5.014-2.789h0a4.055,4.055,0,0,0-2.788,5.013h0a4.057,4.057,0,0,0,5.014,2.787h0A4.059,4.059,0,0,0,636.824,567Z" transform="translate(-626.62 -561.811)"/>
      </g>
      <g id="Group_28" data-name="Group 28" transform="translate(676.258 584.791)">
        <path id="Path_26" data-name="Path 26" d="M627.248,569.046h0a6.3,6.3,0,0,1-4.331,7.786h0a6.3,6.3,0,0,1-7.787-4.332v0a6.3,6.3,0,0,1,4.331-7.789h0a6.3,6.3,0,0,1,7.787,4.33h0m-2.159.615h0a4.056,4.056,0,0,0-5.014-2.789h0a4.056,4.056,0,0,0-2.788,5.013h0a4.057,4.057,0,0,0,5.014,2.788h0A4.059,4.059,0,0,0,625.089,569.662Z" transform="translate(-614.886 -564.473)"/>
      </g>
      <g id="Group_29" data-name="Group 29" transform="translate(690.513 587.961)">
        <path id="Path_27" data-name="Path 27" d="M635.459,567.9l.014.758a24.485,24.485,0,0,1-.158,4.053,4.636,4.636,0,0,1-.247.949l-.18.36-.223.271-.271.172-.091.032a1.076,1.076,0,0,1-.3.039,2.072,2.072,0,0,1-.71-.146l-.4-.173A8.213,8.213,0,0,1,632,573.7a37.836,37.836,0,0,1-3.638-2.891,9.436,9.436,0,0,1,1.054-2.116,3.038,3.038,0,0,1,.645-.665,2.5,2.5,0,0,1,.539-.307,4.357,4.357,0,0,1,1.765-.239A21.675,21.675,0,0,1,635.459,567.9Z" transform="translate(-628.364 -567.47)" fill="rgba(254,186,155,1)"/>
      </g>
      <g id="Group_30" data-name="Group 30" transform="translate(679.992 588.579)">
        <path id="Path_28" data-name="Path 28" d="M621.327,576.149h0A10.659,10.659,0,0,1,619,573.867a3.8,3.8,0,0,1-.39-.755l-.121-.405a3,3,0,0,1-.065-.876,5.083,5.083,0,0,1,.985-2.507,4.342,4.342,0,0,1,.591-.658l.325-.255a2.117,2.117,0,0,1,.684-.316l.393-.041a1.47,1.47,0,0,1,.856.324l.373.341a6.015,6.015,0,0,1,.724.994l.352.63q.349.675.69,1.479.512,1.162,1.667,4.448Z" transform="translate(-618.417 -568.054)" fill="rgba(254,186,155,1)"/>
      </g>
      <g id="Group_31" data-name="Group 31" transform="translate(847.256 1146.462)">
        <path id="Path_29" data-name="Path 29" d="M816.87,1108.422h0q-14.867,8.207-20.759,9.868a38.016,38.016,0,0,1-5.832,1.449q-1.841.4-10.936.984-2.383.487-2.352.8l-.335.476a1.967,1.967,0,0,0,.068,1.343,9.786,9.786,0,0,0,2.747,3.617,22.517,22.517,0,0,0,8.952,4.812,32.452,32.452,0,0,0,9.916.888,125.2,125.2,0,0,0,16.218-2.094q15.382.624,21.027.381,9.269-.5,10.459-.952,6.213-1.047,9.106-3.913l1.151-1.586a8.938,8.938,0,0,0,.972-3.9q.25-7.636-9.312-25.055Z" transform="translate(-776.567 -1095.54)" fill="#feba9b"/>
      </g>
      <g id="Group_32" data-name="Group 32" transform="translate(839.665 1148.598)">
        <path id="Path_30" data-name="Path 30" d="M809.657,1097.56l-2.12,1.153q-11.688,6.483-18.64,8.725-1.989.645-3.921,1.068-.371.106-2.159.412a99.767,99.767,0,0,1-10,.867,8.163,8.163,0,0,0-2.436.508q-2.681,1.481,1.873,5.806a21.527,21.527,0,0,0,3.9,2.76,23.208,23.208,0,0,0,3.264,1.491,25.584,25.584,0,0,0,8.006,1.459q7.045.3,19.916-2.1l23.232-.624Z" transform="translate(-769.39 -1097.56)" fill="#feba9b"/>
      </g>
      <g id="Group_33" data-name="Group 33" transform="translate(849.858 1112.776)">
        <path id="Path_31" data-name="Path 31" d="M779.027,1063.69Z" transform="translate(-779.027 -1063.69)" fill="#feba9b"/>
      </g>
      <g id="Group_34" data-name="Group 34" transform="translate(835.002 755.496)">
        <path id="Path_32" data-name="Path 32" d="M860.345,1146.339l-.642-3.892c-2.979-18.223-4.265-33.791-4.19-46.7.011-1.692-.117-8.3.406-19.809,1.465-32.247,2.31-49.317,2.353-51.231q.314-13.905-.241-23.883c-.111-1.956-.577-6.273-1.665-12.943l-5.985-25.112c-.341-1.039-1.074-5.6-2.16-13.7-1.7-12.627-2.643-29.122-1.979-49.456.536-16.4,2.76-29.122,5.767-38.2l2.576-8.61c7.544-11.21,12.285-20.214,14.68-26.854,2.365-6.555,4.759-17.332,6.732-32.5-26.681-63.515-53.952-67.383-53.952-67.383-26.189-3.716-53.013,52.2-53.013,52.2q-2.794,40.4-3.3,54.655l-.75,18.784c3.181,41.979,6.257,73.576,9.636,94.727,3.967,24.832,10.148,45.068,18.133,60.775,3.343,37.882,5.2,63.223,5.917,76a333.71,333.71,0,0,1-.352,34.944,19.09,19.09,0,0,0,.645,6.79,6.954,6.954,0,0,0,3.921,4.548c1.745.74,5.787,1.534,12.39,1.808l4.373-55.219-5.008,58.9c6.9,8.514,13.066,12.829,18.208,14.225C837.289,1150.4,846.322,1149.861,860.345,1146.339Z" transform="translate(-764.981 -725.876)" fill="rgba(0,0,0,1)"/>
      </g>
      <g id="Group_35" data-name="Group 35" transform="translate(766.939 927.346)">
        <path id="Path_33" data-name="Path 33" d="M700.626,888.363v0h0Z" transform="translate(-700.626 -888.363)" fill="rgba(0,0,0,1)"/>
      </g>
      <g id="Group_36" data-name="Group 36" transform="translate(872.763 695.891)">
        <path id="Path_34" data-name="Path 34" d="M800.684,669.519Z" transform="translate(-800.684 -669.519)" fill="rgba(125,139,150,1)"/>
      </g>
      <g id="Group_37" data-name="Group 37" transform="translate(818.053 475.762)">
        <path id="Path_35" data-name="Path 35" d="M819.388,549.555l.023-.192c.207-7.767,2.986-37.235-1.482-56.5-3.609-15.562-14.577-21.993-14.577-21.993s-14.065-10.037-27.618-9.462-26.516,9.9-26.6,11.763c-.663,4.125.4,2.18,4.5,11.86l25.928,37.621Z" transform="translate(-748.955 -461.384)" fill="rgba(0,0,0,1)"/>
      </g>
      <g id="Group_38" data-name="Group 38" transform="translate(809.224 487.117)">
        <path id="Path_36" data-name="Path 36" d="M823.783,557.506h0l-3.342-15.461-.111-5.95q-6.553.152-10.385-2.484a17.52,17.52,0,0,1-5.543-7.941,24.054,24.054,0,0,1-1.528-6.747,27.3,27.3,0,0,1-.052-2.747q.612-8.718.335-9.173c-.006-1.482-.013-6.8-1.881-11.181-3.2-4.076-3.642-5.057-7.155-2.3-.751.261-1.309,2.273-3.995,6.612-.443.508-7.438,1.645-7.617.632-1.468-7.332-1.058-4.965-1.754-7.567q-2.061-7.119-2.755-8.214-2.631-7-10.377-10.937-12.032-4.3-17.545.98-4.123,14-4.063,18.371a13.117,13.117,0,0,0,3.282,9.286q-8.928,15.27-8.652,18.617-.569,4.112,7.771,3.758-1.032,6.116-.427,7.7.4,1.843,3.455,2.577-2.147.5-1.477,3.139a45.925,45.925,0,0,0,3.626,7.58q-.19,6.382.956,9.207,1.36,2.617,2.735,2.966,2.091,1.341,10.51,1.02l9.3-3.795,6.237,6.625Z" transform="translate(-740.608 -472.121)" fill="rgba(64,30,15,1)"/>
      </g>
      <g id="Group_39" data-name="Group 39" transform="translate(819.198 572.834)">
        <path id="Path_37" data-name="Path 37" d="M750.039,553.167h0Z" transform="translate(-750.038 -553.167)" fill="rgba(0,0,0,1)"/>
      </g>
      <g id="Group_40" data-name="Group 40" transform="translate(821.647 557.89)">
        <path id="Path_38" data-name="Path 38" d="M816.931,783.164,819.39,787q19.662,31.166,29.946,34.481,11.524,4.949,28.659-1.168.7-4.433,1.364-8.891,3.8-24.418,1.811-42.965a154.86,154.86,0,0,0-2.461-15.876q-10.248-44.335-10.2-45.826-.917-4.151-2.636-16.81-2.083-16.286-2.47-62.237-.879-14.909-1.462-17.353-.752-7.913-4.957-19.27-.68-2.8-7.158-13.253-6.76-10.121-22.574-24.106l-6.6-14.693-44.077,15.676,1.987,13.171q-21.846,40.512-23.713,60.394a217.631,217.631,0,0,0-2.185,44.7q-.6.561,5.559,73.105,1.489,22.813,1.486,31.924.093,20.077-3.279,28.9,16.607,5.542,26.865.925Q793.2,804.536,816.931,783.164Z" transform="translate(-752.353 -539.037)" fill="#fff"/>
      </g>
      <g id="Group_41" data-name="Group 41" transform="translate(836.684 1148.524)">
        <path id="Path_39" data-name="Path 39" d="M804.247,1097.49h0l-25.707,7.5q-2.316.539-4.478,1.164-1.071.317-2.045.687-5.154,1.7-5.385,6.092-.333,1.629,1.189,7.9l50.806-7.974Z" transform="translate(-766.571 -1097.49)" fill="rgba(0,0,0,1)"/>
      </g>
      <g id="Group_42" data-name="Group 42" transform="translate(833.193 1148.355)">
        <path id="Path_40" data-name="Path 40" d="M809.019,1097.33l-1.149,1.185q-8.055,8.281-13.4,10.365a33.048,33.048,0,0,1-6.2,2.147q-1.838.444-3.784.793-12.75,2.01-13.185,2.327-4.357,1.1-6.133,2.729-2.536,1.671-1.694,6.948a16.084,16.084,0,0,0,6.458,8.641q5.606,4.368,19.892,4.336,1.261.042,7.958-.233l45.6-2.1a67.33,67.33,0,0,0,8.437.169q6.162-.529,8.093-2.972,2.729-2.676,2.387-10.079.2-4.252-3.934-22.771l-15.359,11.75Z" transform="translate(-763.271 -1097.33)" fill="rgba(0,0,0,1)"/>
      </g>
      <g id="Group_43" data-name="Group 43" transform="translate(857.459 1156.382)">
        <path id="Path_41" data-name="Path 41" d="M786.214,1104.92Z" transform="translate(-786.214 -1104.92)" fill="rgba(0,0,0,1)"/>
      </g>
      <g id="Group_44" data-name="Group 44" transform="translate(507.872 480.608)">
        <path id="Path_42" data-name="Path 42" d="M455.675,465.966Z" transform="translate(-455.675 -465.966)" fill="rgba(98,179,177,1)"/>
      </g>
      <g id="Group_45" data-name="Group 45" transform="translate(657.198 617.608)">
        <path id="Path_43" data-name="Path 43" d="M596.866,595.5h0Z" transform="translate(-596.865 -595.501)" fill="rgba(0,0,0,1)"/>
      </g>
      <g id="Group_46" data-name="Group 46" transform="translate(572.329 689.764)">
        <path id="Path_44" data-name="Path 44" d="M523.351,699.852a33.337,33.337,0,0,0,6.511,46.684h22.22l35.252-76.071a33.326,33.326,0,0,0-46.684,6.5Z" transform="translate(-516.62 -663.726)" fill="#3c464f"/>
      </g>
      <g id="Group_47" data-name="Group 47" transform="translate(409.413 915.667)">
        <path id="Path_45" data-name="Path 45" d="M395.909,877.32H362.58V979.864h33.329Zm0,0H362.58V979.864h33.329Zm0,0H362.58V979.864h33.329Zm0,0H362.58V979.864h33.329Z" transform="translate(-362.58 -877.32)"/>
      </g>
      <g id="Group_48" data-name="Group 48" transform="translate(401.351 1043.88)">
        <path id="Path_46" data-name="Path 46" d="M406.212,998.548H354.958v96.3h51.254Zm0,0H354.958v96.3h51.254Zm0,0H354.958v96.3h51.254Zm0,0H354.958v96.3h51.254Z" transform="translate(-354.958 -998.548)"/>
      </g>
      <g id="Group_49" data-name="Group 49" transform="translate(379.215 772.963)">
        <path id="Path_47" data-name="Path 47" d="M334.028,775.722H481.334V742.392H367.358A33.326,33.326,0,0,0,334.028,775.722Z" transform="translate(-334.028 -742.392)" fill="#3c464f"/>
      </g>
      <g id="Group_50" data-name="Group 50" transform="translate(343.109 797.96)">
        <path id="Path_48" data-name="Path 48" d="M299.89,827.131h16.664v-25A19.465,19.465,0,0,1,336,782.692H536.318V766.027H336a36.145,36.145,0,0,0-36.106,36.105v25h0Z" transform="translate(-299.889 -766.027)"/>
      </g>
      <g id="Group_51" data-name="Group 51" transform="translate(351.442 879.441)">
        <path id="Path_49" data-name="Path 49" d="M457.039,843.068v27.32a20.08,20.08,0,0,1-20.02,20.02H327.788a20.082,20.082,0,0,1-20.02-20.021v-27.32Z" transform="translate(-307.768 -843.068)" fill="#3c464f"/>
      </g>
      <g id="Group_52" data-name="Group 52" transform="translate(173.326 688.594)">
        <path id="Path_50" data-name="Path 50" d="M143.391,994.817,261.8,838.058c5.522-7.31,17.542-13.3,26.708-13.3H492.552L609.073,670.53a19.9,19.9,0,1,1,31.752,23.987L512.373,864.576H291.664L175.143,1018.8a19.9,19.9,0,1,1-31.752-23.987Z" transform="translate(-139.357 -662.62)"/>
      </g>
      <g id="Group_53" data-name="Group 53" transform="translate(291.4 1130.693)">
        <path id="Path_51" data-name="Path 51" d="M265.22,1080.63c0,.011,242.722.011,242.722.011s14.221-.011,14.221-.011v47.4a7.111,7.111,0,1,1-14.222,0V1109.08H265.22v18.953a7.111,7.111,0,1,1-14.223,0v-47.4Z" transform="translate(-250.997 -1080.63)" fill="#3c464f"/>
      </g>
      <g id="Group_54" data-name="Group 54" transform="translate(360.688 984.623)">
        <path id="Path_52" data-name="Path 52" d="M316.51,942.519H449.476v86.547H316.51Z" transform="translate(-316.51 -942.519)" fill="#3c464f"/>
      </g>
      <g id="Group_55" data-name="Group 55" transform="translate(666.479 780.786)">
        <path id="Path_53" data-name="Path 53" d="M605.64,754.805l41.416-2.509,41.414-2.509q.195,3.2.388,6.4l-82.83,5.02Q605.834,758.006,605.64,754.805Z" transform="translate(-605.64 -749.788)"/>
      </g>
      <g id="Group_56" data-name="Group 56" transform="translate(666.402 787.973)">
        <path id="Path_54" data-name="Path 54" d="M605.567,757.93l17.855-.673,17.856-.674q.094,2.5.189,5l-35.712,1.349Z" transform="translate(-605.567 -756.584)"/>
      </g>
      <g id="Group_57" data-name="Group 57" transform="translate(668.372 792.265)">
        <path id="Path_55" data-name="Path 55" d="M607.43,760.714l.978-.036.977-.036q.118,3.145.238,6.292l-1.957.074Z" transform="translate(-607.43 -760.642)"/>
      </g>
      <g id="Group_58" data-name="Group 58" transform="translate(673.709 792.631)">
        <path id="Path_56" data-name="Path 56" d="M612.476,761.061l.978-.037.977-.036q.118,3.145.238,6.292l-1.957.074Z" transform="translate(-612.476 -760.988)"/>
      </g>
      <g id="Group_59" data-name="Group 59" transform="translate(679.485 791.46)">
        <path id="Path_57" data-name="Path 57" d="M617.937,759.954l.977-.037.978-.036q.118,3.145.237,6.292l-1.956.074Z" transform="translate(-617.937 -759.881)"/>
      </g>
      <g id="Group_60" data-name="Group 60" transform="translate(684.829 791.615)">
        <path id="Path_58" data-name="Path 58" d="M622.99,760.1l.978-.037.978-.036q.118,3.146.237,6.292l-1.956.074Q623.108,763.246,622.99,760.1Z" transform="translate(-622.99 -760.027)"/>
      </g>
      <g id="Group_61" data-name="Group 61" transform="translate(689.516 791.33)">
        <path id="Path_59" data-name="Path 59" d="M627.422,759.83l.977-.036.978-.036.237,6.291-1.956.075Z" transform="translate(-627.422 -759.758)"/>
      </g>
      <g id="Group_62" data-name="Group 62" transform="translate(695.018 791.33)">
        <path id="Path_60" data-name="Path 60" d="M632.624,759.831l.978-.037.977-.036q.119,3.145.237,6.291l-1.956.075Q632.743,762.977,632.624,759.831Z" transform="translate(-632.624 -759.758)"/>
      </g>
      <g id="Group_63" data-name="Group 63" transform="translate(699.331 790.744)">
        <path id="Path_61" data-name="Path 61" d="M636.7,759.277l.978-.036.977-.037q.119,3.146.238,6.292l-1.956.075Q636.82,762.423,636.7,759.277Z" transform="translate(-636.702 -759.204)"/>
      </g>
      <g id="Group_64" data-name="Group 64" transform="translate(708.422 770.117)">
        <path id="Path_62" data-name="Path 62" d="M699.356,742.686l-41.777,4.358L645.3,763.3l58.647-5.87,22.83-17.727Z" transform="translate(-645.298 -739.701)" fill="#feba9b"/>
      </g>
      <g id="Group_65" data-name="Group 65" transform="translate(739.82 594.379)">
        <path id="Path_63" data-name="Path 63" d="M818.148,635.463l-30.034,19.045L709.156,782.755l-34.171-24.611q54.309-113.216,71.25-140.488c9.584-15.526,15.179-23.577,16.209-24.812,6.624-7.951,11.952-13.413,16.562-16.142,6.1-3.608,13.008-4.21,20.985-1.4Z" transform="translate(-674.985 -573.538)" fill="#fff"/>
      </g>
      <g id="Group_66" data-name="Group 66" transform="translate(-70.016 840.748)">
        <path id="Path_64" data-name="Path 64" d="M-39.789,806.483H-90.727v350.3h50.937Z" transform="translate(90.727 -806.483)" fill="rgba(0,0,0,1)"/>
      </g>
      <g id="Group_67" data-name="Group 67" transform="translate(-70.637 814.48)">
        <path id="Path_65" data-name="Path 65" d="M-91.314,807.877,2.376,783.1l52.081-1.455q.652,48.723.548,87.933.247,2.552-1.459,223.541l.059,28.6q.174,7.287.461,6.578l-98.03,27.625Z" transform="translate(91.314 -781.647)" fill="rgba(0,0,0,1)"/>
      </g>
      <g id="Group_68" data-name="Group 68" transform="translate(-76.259 439.22)">
        <path id="Path_66" data-name="Path 66" d="M-36.543,440.579q23.709-9.722,47.007,25.914,22.124,35.791,32.505,96.945a479.842,479.842,0,0,1,3.363,127.3q-8.157,67.931-31.313,95.747-26.151,29.219-55.417-7.759-28.719-38.78-40.1-122.416-9.716-77.152,4.458-143.218,13.752-59.333,39.428-72.482M-38.678,429.6q-30.847,14.23-47.161,77.518-17.364,71.627-6.784,159.426,12.631,93.016,45.977,132.47,32.626,35.9,63.924.824Q44.858,766.173,53.965,694.1a495.953,495.953,0,0,0-3.388-136.776q-11.328-65.21-36.026-102.7-25.135-36.448-53.066-25.1Z" transform="translate(96.629 -426.833)"/>
      </g>
      <g id="Group_69" data-name="Group 69" transform="translate(-81.345 618.763)">
        <path id="Path_67" data-name="Path 67" d="M-101.438,596.593h0Z" transform="translate(101.438 -596.593)" fill="rgba(25,56,68,1)"/>
      </g>
      <g id="Group_70" data-name="Group 70" transform="translate(23.774 815.056)">
        <path id="Path_68" data-name="Path 68" d="M48.891,782.191H-2.047q0,175.148,0,350.294H48.891Q48.891,957.34,48.891,782.191Z" transform="translate(2.047 -782.191)" fill="rgba(0,0,0,1)"/>
      </g>
      <g id="Group_71" data-name="Group 71" transform="translate(-153.475 1150.629)">
        <path id="Path_69" data-name="Path 69" d="M980.291,1129l-5.249,4.008q-37.316,12.1-218.372,19.365-182.309,7.245-429.363,5.88-235.78-1.925-377.143-11.211-45.294-3.014-74.617-6.557l-24.645-3.638q-20.311-3.755-20.539-7.848,6.166-12.543,168.4-20.867t406.56-8.651q244.324.317,406.562,8.651T980.291,1129Z" transform="translate(169.638 -1099.48)" fill="rgba(0,0,0,0.22)"/>
      </g>
      <g id="Group_72" data-name="Group 72" transform="translate(821.415 511.465)">
        <path id="Path_70" data-name="Path 70" d="M762.379,496.429l-.478-.167a14.557,14.557,0,0,0-5.065-1.119,6.161,6.161,0,0,0-.837.081,7.565,7.565,0,0,0-1.2.306,18.486,18.486,0,0,0-2.662,1.208,41.882,41.882,0,0,1,4.6-.437Q758.42,496.237,762.379,496.429Z" transform="translate(-752.134 -495.142)" fill="rgba(0,0,0,1)"/>
      </g>
      <g id="Group_73" data-name="Group 73" transform="translate(830.959 520.989)">
        <path id="Path_71" data-name="Path 71" d="M761.158,504.147h0Z" transform="translate(-761.158 -504.147)" fill="rgba(0,0,0,1)"/>
      </g>
      <g id="Group_74" data-name="Group 74" transform="translate(823.97 514.706)">
        <path id="Path_72" data-name="Path 72" d="M760.716,499.933h0l-5.7-1.728a3.957,3.957,0,0,0-.464,1.71,7.016,7.016,0,0,0,.481,2.115Z" transform="translate(-754.55 -498.206)" fill="rgba(255,255,255,1)"/>
      </g>
      <g id="Group_75" data-name="Group 75" transform="translate(823.81 514.666)">
        <path id="Path_73" data-name="Path 73" d="M755.055,498.168l1.592,1.754-1.487,2.011a9.27,9.27,0,0,1-.58-1.17,2.815,2.815,0,0,1-.144-.488,1.964,1.964,0,0,1-.037-.317,1.892,1.892,0,0,1,.019-.31,2.237,2.237,0,0,1,.118-.454A6.175,6.175,0,0,1,755.055,498.168Z" transform="translate(-754.399 -498.168)" fill="rgba(0,0,0,1)"/>
      </g>
      <g id="Group_76" data-name="Group 76" transform="translate(36.877 727.052)">
        <path id="Path_74" data-name="Path 74" d="M10.343,698.982h0Z" transform="translate(-10.343 -698.982)" fill="rgba(255,255,255,1)"/>
      </g>
      <g id="Group_77" data-name="Group 77" transform="translate(525.232 728.938)">
        <path id="Path_75" data-name="Path 75" d="M472.089,700.765h0" transform="translate(-472.089 -700.765)" fill="rgba(255,0,0,1)"/>
      </g>
    </g>
  </g>
</svg>
