<svg xmlns="http://www.w3.org/2000/svg" xmlns:xlink="http://www.w3.org/1999/xlink" width="1000" height="1000" viewBox="0 0 1000 1000">
  <defs>
    <clipPath id="clip-Custom_Size_1">
      <rect width="1000" height="1000"/>
    </clipPath>
  </defs>
  <g id="Custom_Size_1" data-name="Custom Size – 1" clip-path="url(#clip-Custom_Size_1)">
    <text id="U" transform="translate(-5.579 944)" fill="#ea1b1b" font-size="240" font-family="TwCenMT-Regular, Tw Cen MT"><tspan x="0" y="0">U</tspan></text>
    <g id="Pawełka" transform="translate(204 772.543)">
      <text id="p_wełka" data-name="p wełka" transform="translate(0 146)" fill="#40798c" font-size="171" font-family="TwCenMT-Regular, Tw Cen MT" letter-spacing="0.15em"><tspan x="0" y="0">P WEŁK</tspan><tspan y="0" fill="#ea1b1b">A</tspan></text>
      <g id="nożyczki" transform="translate(43.27 99.998) rotate(-45)">
        <path id="Path_28" data-name="Path 28" d="M14.893,4.189,0,60.349,19.392,26.684,31.8,0Z" transform="translate(44.059 74.625)" fill="#ea1b1b"/>
        <path id="Path_29" data-name="Path 29" d="M106.89,22.787,0,51.333s60.038-36.3,70.9-33.975,11.946,3.879,15.2,3.258,19.082-3.723,19.392-4.964,1.4-6.206,1.4-6.206l-3.1-2.468-1.462-1.223s3.939-4.53,4.559-4.065,2.637,3.258,3.723,2.482,9.774-7.136,16.755-2.482a19.273,19.273,0,0,1,8.377,12.1c0,.465,1.706,5.74-3.723,11.325S122.4,32.1,117.439,30.7,106.89,22.787,106.89,22.787Z" transform="translate(0 39.737)" fill="#ea1b1b"/>
        <circle id="Ellipse_5" data-name="Ellipse 5" cx="2.058" cy="2.058" r="2.058" transform="translate(69.159 60.847)" fill="#ea1b1b"/>
        <circle id="Ellipse_6" data-name="Ellipse 6" cx="7.12" cy="7.12" r="7.12" transform="translate(114.416 48.189)" fill="#ea1b1b"/>
        <path id="Path_30" data-name="Path 30" d="M.424,53.526h10.5L9.836,49.493l5.585-19.858s5.43-.31,5.74-.621,3.568,3.879,3.568,3.879l4.654-3.879-2.637-3.723s6.361-11.635,2.017-17.375S19.455.159,15.421,0,4.489,4.757,2.855,6.985-.921,17.069.424,19.861c.631,1.31,1.876,4.49,3.983,6.206,1.58,1.284,3.98,1.091,3.568,2.327C7.2,30.721.424,53.526.424,53.526Z" transform="translate(64.94 0)" fill="#ea1b1b"/>
        <circle id="Ellipse_7" data-name="Ellipse 7" cx="7.12" cy="7.12" r="7.12" transform="translate(73.275 7.048)" fill="#ea1b1b"/>
      </g>
    </g>
    <g id="Group_2" data-name="Group 2" transform="translate(148.593 43.574)">
      <path id="Path_27" data-name="Path 27" d="M350.543,323.559s49.939,13.351,77.057,58.6c13.543,22.591,21.212,54.119,12.559,96.536" transform="translate(113.154 -241.13)" fill="none" stroke="#40798c" stroke-linecap="round" stroke-width="3"/>
      <path id="Path_23" data-name="Path 23" d="M635.61,308.094S597.643,409.456,497.243,417.975,263.106,612.323,263.106,612.323" transform="translate(-260.224 -306.455)" fill="none" stroke="#40798c" stroke-linecap="round" stroke-width="3"/>
      <path id="Path_25" data-name="Path 25" d="M566.189,311.041s14.972,29.712,18.638,70.506c4.934,54.861-13.3,130.5-135.25,174.011-29,25.03-18.8,58.052-36.314,110.98-21.464,33.544-72.007,49.448-85.065,60.115-29.147,23.811-31.235,92.609-33.319,216.808" transform="translate(-121.974 -298.376)" fill="none" stroke="#40798c" stroke-linecap="round" stroke-width="3"/>
      <path id="Path_26" data-name="Path 26" d="M497.155,314.7S580.7,379.42,559.314,488.966c-1.112,5.7-5.57,33.284-11.618,45.05-2.6,5.784-14.683,16.575-18.805,25.86s-2.225,12.52-2.225,12.52,10.54,31.006,39.991,53.618c6.211,7.257-28.008,29.176-37.766,29.992s29.5,22.637,17.853,30.971-29.637,8.047-29.637,8.047,33.08,16.448,16.769,23.843-23.174,25.139-23.6,41.172.17,46.323-18.863,46.547S388.066,781.57,355.81,795.37s-38.279,50.962-26.051,79.515,25.9,52.864,55.378,65.913S439,962.868,439,962.868" transform="translate(0.551 -282.266)" fill="none" stroke="#40798c" stroke-linecap="round" stroke-width="3"/>
      <path id="Path_24" data-name="Path 24" d="M663.64,309.71s11.189,78.062-76.3,133.248S469.288,496.445,455.015,554.6,367.366,672.349,318.583,693.525s-51.99,80.537-51.99,80.537" transform="translate(-241.452 -302.398)" fill="none" stroke="#40798c" stroke-linecap="round" stroke-width="3"/>
      <path id="Path_31" data-name="Path 31" d="M350.609,0C544.245,0,701.219,155.148,701.219,346.532c0,150.045-96.484,277.818-231.387,325.983a353.8,353.8,0,0,1-119.222,20.549C156.973,693.065,0,537.917,0,346.532S156.973,0,350.609,0Z" fill="none" stroke="#000" stroke-linecap="round" stroke-width="3"/>
    </g>
  </g>
</svg>
