<svg xmlns="http://www.w3.org/2000/svg" xmlns:xlink="http://www.w3.org/1999/xlink" width="1972" height="827" viewBox="0 0 1972 827"><defs><clipPath id="b"><rect width="1972" height="827"/></clipPath></defs><g id="a" clip-path="url(#b)"><g transform="translate(44.729 50.5)"><path d="M444.423,491.065a5,5,0,0,1-4.9-6c7.739-37.936,3.519-70.758-12.545-97.553-27.053-45.137-77.218-58.987-77.722-59.122a5,5,0,0,1,2.583-9.661c2.216.592,54.6,15.067,83.716,63.641,17.389,29.006,22.021,64.23,13.766,104.693A5,5,0,0,1,444.423,491.065Z" transform="translate(135.189 -237.213)" fill="#40798c"/><path d="M263.1,631.781a5,5,0,0,1-4.054-7.921c5.775-8.025,142.658-196.631,248.9-205.645,100.7-8.544,140.3-110.845,140.684-111.877a5,5,0,0,1,9.363,3.511c-.409,1.091-42.12,109.245-149.2,118.33C407.09,436.808,268.552,627.773,267.164,629.7A4.994,4.994,0,0,1,263.1,631.781Z" transform="translate(-260.087 -306.377)" fill="#40798c"/><path d="M294.88,978.516h-.086a5,5,0,0,1-4.915-5.083c2.308-137.558,4.833-204.836,36.738-230.9,4.492-3.67,12.091-7.507,21.711-12.364,21.486-10.849,50.853-25.678,66.012-48.91,6.671-20.339,9.376-37.827,11.766-53.275,4.07-26.312,7.285-47.1,27.555-64.59l.707-.61.88-.314C578.819,518.376,598.7,441.811,593.625,385.346c-3.7-41.193-18.857-71.754-19.01-72.058a5,5,0,0,1,8.932-4.5c.658,1.306,16.157,32.472,20.038,75.659,5.383,59.844-15.283,140.817-144.078,187.115-16.872,14.973-19.668,33.051-23.518,57.946-2.473,15.986-5.275,34.1-12.353,55.491l-.2.6-.338.528c-16.531,25.835-47.588,41.517-70.264,52.967-8.717,4.4-16.245,8.2-19.892,11.182-28.4,23.2-30.871,92.533-33.066,223.323A5,5,0,0,1,294.88,978.516Z" transform="translate(-113.758 -297.774)" fill="#40798c"/><path d="M444.471,998.671a4.99,4.99,0,0,1-1.734-.312c-.257-.1-26.051-9.661-56.714-23.236-34.043-15.072-48.595-43.659-60.582-71.649-6.968-16.27-8.446-34.762-4.055-50.736a58.591,58.591,0,0,1,33.973-39.123c24.844-10.629,74.583-.971,110.9,6.081,14.732,2.861,27.457,5.331,33.056,5.265,12.806-.151,14.326-21.045,14.745-40.618l.076-3.274c.588-22.191,10.926-39.966,27.654-47.55a4.555,4.555,0,0,0,1.868-1.213c-.254-2.531-9.745-9.824-19.6-14.733l2.3-9.476c.172,0,17.387.143,28.062-7.5.362-2.984-9.16-11.53-12.745-14.747-7.056-6.333-10.943-9.821-9.392-14.439.382-1.138,1.725-3.823,5.928-4.174,8.14-.68,32.7-17.2,35.522-23.568-29.4-23.239-40.789-53.526-42.063-57.117-.964-2.153-1.963-7.259,2.388-17.06,2.712-6.108,8-12.343,12.66-17.845,3.019-3.562,6.142-7.246,7.049-9.264C559.1,532,563.384,508.408,565,499.525l.6-3.235c21.52-110.253-62.421-176.981-63.271-177.643a5,5,0,0,1,6.128-7.9c.9.7,89.684,71.032,66.958,187.46l-.573,3.106c-1.844,10.157-6.161,33.942-12.057,45.412-1.372,3.071-4.642,6.928-8.428,11.395-4.228,4.988-9.019,10.641-11.148,15.437-2.921,6.579-2.3,9.154-2.3,9.179.234.6,11.136,31.691,40.332,54.107l.414.318.339.4c1.267,1.48,3.1,4.68,1.125,9.482C579.056,656.928,558,670.875,545.26,675.6c1.031.954,2.133,1.943,3.1,2.811,7.815,7.014,16.673,14.963,16.244,22.726a9.788,9.788,0,0,1-4.359,7.6c-5.694,4.075-12.55,6.379-18.615,7.682,6.342,4.576,12.065,10.369,11.959,16.329-.053,2.946-1.426,7.052-7.669,9.882-19.5,8.84-21.605,31.862-21.787,38.707l-.074,3.223c-.4,18.748-1.074,50.126-24.625,50.4-6.62.079-19.18-2.361-35.08-5.448-33.068-6.421-83.041-16.124-105.061-6.7-18.085,7.738-25.353,21.988-28.264,32.58-3.8,13.83-2.488,29.921,3.605,44.148,13.67,31.918,27.711,54.167,55.438,66.441,30.38,13.45,55.881,22.907,56.135,23a5,5,0,0,1-1.735,9.691Z" transform="translate(15.968 -280.725)" fill="#40798c"/><path d="M266.6,801.126c-.093,0-.186,0-.279-.008a5,5,0,0,1-4.718-5.259c.144-2.665,4.139-65.534,57.462-88.681,49.349-21.422,125.473-82.732,140.051-142.131,11.44-46.612,32.63-58.316,79.057-83.959,16.545-9.138,37.137-20.511,61.739-36.029C687.8,389.623,677.671,311.2,677.558,310.419a5,5,0,0,1,9.9-1.419c.122.85,11.1,85.661-82.213,144.518-24.848,15.673-45.58,27.124-62.239,36.324-45.112,24.916-63.784,35.229-74.18,77.588-16.047,65.386-96.476,127.517-145.781,148.92-47.584,20.656-51.426,79.461-51.459,80.053A5,5,0,0,1,266.6,801.126Z" transform="translate(-240.258 -302.05)" fill="#40798c"/><path d="M367.271-5C572.541-5,739.541,160.084,739.541,363c0,154.592-98.74,293.712-245.7,346.183A375.358,375.358,0,0,1,367.271,731C162,731-5,565.916-5,363S162-5,367.271-5Zm0,726a365.384,365.384,0,0,0,123.206-21.235C633.469,648.712,729.541,513.377,729.541,363c0-197.4-162.514-358-362.271-358S5,165.6,5,363,167.514,721,367.271,721Z"/></g><g transform="translate(881.541 417.828)"><text transform="translate(0 176)" fill="#40798c" font-size="206" font-family="TwCenMT-Regular, Tw Cen MT" letter-spacing="0.15em"><tspan x="0" y="0">P WEŁK</tspan><tspan y="0" fill="#ea1b1b">A</tspan></text><g transform="translate(51.771 119.645) rotate(-45)"><path d="M17.819,5.012,0,72.206,23.2,31.926,38.052,0Z" transform="translate(52.716 89.287)" fill="#ea1b1b"/><path d="M127.891,27.265,0,61.418S71.834,17.984,84.827,20.768s14.293,4.641,18.191,3.9,22.831-4.455,23.2-5.94,1.671-7.425,1.671-7.425l-3.706-2.953-1.75-1.464s4.713-5.42,5.455-4.864,3.155,3.9,4.455,2.97,11.694-8.538,20.047-2.97A23.06,23.06,0,0,1,162.416,16.5c0,.557,2.042,6.868-4.455,13.55s-11.508,8.353-17.448,6.682S127.891,27.265,127.891,27.265Z" transform="translate(0 47.544)" fill="#ea1b1b"/><circle cx="2.462" cy="2.462" r="2.462" transform="translate(82.748 72.802)" fill="#ea1b1b"/><circle cx="8.519" cy="8.519" r="8.519" transform="translate(136.895 57.656)" fill="#ea1b1b"/><path d="M.507,64.043H13.068l-1.3-4.826,6.682-23.759s6.5-.371,6.868-.742,4.269,4.641,4.269,4.641l5.569-4.641L32,30.26s7.61-13.921,2.413-20.789S23.277.19,18.451,0,5.37,5.692,3.416,8.357-1.1,20.422.507,23.764c.755,1.567,2.245,5.372,4.765,7.425,1.89,1.536,4.762,1.306,4.269,2.784C8.614,36.757.507,64.043.507,64.043Z" transform="translate(77.699 0)" fill="#ea1b1b"/><circle cx="8.519" cy="8.519" r="8.519" transform="translate(87.672 8.433)" fill="#ea1b1b"/><text transform="translate(373.743 143.422) rotate(45)" fill="#ea1b1b" font-size="252" font-family="TwCenMT-Regular, Tw Cen MT"><tspan x="0" y="0">U</tspan></text></g></g></g></svg>